<?xml version="1.0" encoding="iso-8859-1"?>
<!-- Generator: Adobe Illustrator 19.0.0, SVG Export Plug-In . SVG Version: 6.00 Build 0)  -->
<svg version="1.1" id="Capa_1" xmlns="http://www.w3.org/2000/svg" xmlns:xlink="http://www.w3.org/1999/xlink" x="0px" y="0px"
	 viewBox="0 0 480.196 480.196" style="enable-background:new 0 0 480.196 480.196;" xml:space="preserve">
<g>
	<g>
		<g>
			<rect x="104.098" y="440.098" width="16" height="16"/>
			<rect x="136.098" y="440.098" width="16" height="16"/>
			<rect x="168.098" y="440.098" width="16" height="16"/>
			<rect x="200.098" y="440.098" width="16" height="16"/>
			<rect x="232.098" y="440.098" width="16" height="16"/>
			<rect x="264.098" y="440.098" width="16" height="16"/>
			<rect x="296.098" y="440.098" width="16" height="16"/>
			<rect x="328.098" y="440.098" width="16" height="16"/>
			<rect x="360.098" y="440.098" width="16" height="16"/>
			<rect x="392.098" y="440.098" width="16" height="16"/>
			<path d="M272.098,96.098c0-13.255-10.745-24-24-24h-64c-13.255,0-24,10.745-24,24s10.745,24,24,24h64
				C261.353,120.098,272.098,109.353,272.098,96.098z M176.098,96.098c0-4.418,3.582-8,8-8h64c4.418,0,8,3.582,8,8s-3.582,8-8,8h-64
				C179.68,104.098,176.098,100.516,176.098,96.098z"/>
			<path d="M224.098,344.098h64c13.255,0,24-10.745,24-24s-10.745-24-24-24h-64c-13.255,0-24,10.745-24,24
				S210.843,344.098,224.098,344.098z M224.098,312.098h64c4.418,0,8,3.582,8,8s-3.582,8-8,8h-64c-4.418,0-8-3.582-8-8
				S219.68,312.098,224.098,312.098z"/>
			<path d="M477.754,13.754c3.178-3.07,3.266-8.134,0.196-11.312s-8.134-3.266-11.312-0.196c-0.067,0.064-0.132,0.13-0.196,0.196
				l-74.344,74.344V64.098h8c4.418,0,8-3.582,8-8v-48c0-4.418-3.582-8-8-8h-368c-4.418,0-8,3.582-8,8v48c0,4.418,3.582,8,8,8h8v168
				c0,4.418,3.582,8,8,8h8v40c0,4.418,3.582,8,8,8h8v108.688L2.442,466.442c-3.178,3.07-3.266,8.134-0.196,11.312
				c3.07,3.178,8.134,3.266,11.312,0.196c0.067-0.064,0.132-0.13,0.196-0.196l58.344-58.344v52.688c0,4.418,3.582,8,8,8h352
				c4.418,0,8-3.582,8-8v-184h8c4.418,0,8-3.582,8-8v-48c0-4.418-3.582-8-8-8h-56V99.41L477.754,13.754z M56.098,224.098v-160h320
				v28.688L244.786,224.098H56.098z M376.098,115.41v108.688H267.41L376.098,115.41z M72.098,272.098v-32h156.688l-32,32H72.098z
				 M180.786,288.098l-92.688,92.688v-92.688H180.786z M424.098,464.098h-336V403.41L203.41,288.098h220.688V464.098z
				 M440.098,240.098v32H219.41l32-32H440.098z M40.098,48.098v-32h352v32H40.098z"/>
		</g>
	</g>
</g>
<g>
</g>
<g>
</g>
<g>
</g>
<g>
</g>
<g>
</g>
<g>
</g>
<g>
</g>
<g>
</g>
<g>
</g>
<g>
</g>
<g>
</g>
<g>
</g>
<g>
</g>
<g>
</g>
<g>
</g>
</svg>
